# xmcd
#
# Track frame offsets:
#	150
#	17369
#	33801
#	58138
#	73766
#	91115
#	110087
#	126442
#	143190
#	164953
#	181243
#	199295
#	214460
#	226494
#	245933
#
# Disc length: 3595 seconds
#
# Revision: 1
# Processed by: cddbd v1.5.1PL0 Copyright (c) Steve Scherf et al.
# Submitted via: audiograbber 1.83.01
#
DISCID=e90e090f
DTITLE=DE LAS ALTURAS DE LOS ANDES - PAIXÃO SERTANEJA
DYEAR=1900
DGENRE=
TTITLE0=VOCÊ VAI VER
TTITLE1=É O AMOR
TTITLE2=PRECISO SER AMADO
TTITLE3=NÃO APRENDI A DIZER ADEUS
TTITLE4=SONHO POR SONHO
TTITLE5=DEU MEDO
TTITLE6=DOCE MISTÉRIO
TTITLE7=TEMPORAL DE AMOR
TTITLE8=EVIDÊNCIAS
TTITLE9=DESCULPE, MAS EU VOU CHORAR
TTITLE10=UM SONHADOR
TTITLE11=PENSE EM MIM
TTITLE12=FIO DE CABELO
TTITLE13=CADA VOLTA UM RECOMEÇO
TTITLE14=TE AMO CADA VEZ MAIS
EXTD=
EXTT0=
EXTT1=
EXTT2=
EXTT3=
EXTT4=
EXTT5=
EXTT6=
EXTT7=
EXTT8=
EXTT9=
EXTT10=
EXTT11=
EXTT12=
EXTT13=
EXTT14=
PLAYORDER=
